<!--?xml version="1.0" standalone="no"?-->
              <svg id="sw-js-blob-svg" viewBox="0 0 100 100" xmlns="http://www.w3.org/2000/svg" version="1.1">
                    <defs> 
                        <linearGradient id="sw-gradient" x1="0" x2="1" y1="1" y2="0">
                            <stop id="stop1" stop-color="rgba(227, 196, 132, 1)" offset="0%"></stop>
                            <stop id="stop2" stop-color="rgba(227, 196, 132, 1)" offset="100%"></stop>
                        </linearGradient>
                    </defs>
                <path fill="url(#sw-gradient)" d="M20.7,-37.2C26.7,-32.5,31.1,-26.5,35.6,-20.1C40.1,-13.7,44.7,-6.8,44.2,-0.3C43.7,6.3,38.1,12.5,33.5,18.7C28.8,24.9,25.1,31,19.7,35.2C14.3,39.4,7.1,41.7,-0.5,42.6C-8.2,43.5,-16.4,43.1,-23.4,39.8C-30.5,36.5,-36.3,30.4,-40.3,23.3C-44.2,16.2,-46.2,8.1,-45.2,0.6C-44.1,-6.9,-39.9,-13.8,-35.8,-20.6C-31.7,-27.5,-27.7,-34.3,-21.8,-39C-15.8,-43.7,-7.9,-46.3,-0.2,-45.9C7.4,-45.4,14.8,-42,20.7,-37.2Z" width="100%" height="100%" transform="translate(50 50)" stroke-width="0" style="transition: all 0.3s ease 0s;" stroke="url(#sw-gradient)"></path>
              </svg>